<svg width="1200" height="900" viewBox="0 0 1200 900" fill="none" xmlns="http://www.w3.org/2000/svg">
  <rect width="1200" height="900" fill="#0B0B0B"/>
  <rect x="44" y="44" width="1112" height="812" rx="36" fill="#111111" stroke="#2A2A2A"/>
  <circle cx="888" cy="198" r="176" fill="#C1121F" fill-opacity="0.12"/>
  <circle cx="888" cy="198" r="110" fill="#C1121F" fill-opacity="0.08"/>
  <path d="M159 698C232 598 333 532 430 514C507 501 578 522 641 559C709 598 758 654 812 679C873 707 954 706 1041 676V812H159V698Z" fill="#161616"/>
  <path d="M353 294C353 222.203 411.203 164 483 164H579C650.797 164 709 222.203 709 294V437C709 508.797 650.797 567 579 567H483C411.203 567 353 508.797 353 437V294Z" fill="#202020" stroke="#343434"/>
  <path d="M445 323C445 299.804 463.804 281 487 281H575C598.196 281 617 299.804 617 323V405C617 428.196 598.196 447 575 447H487C463.804 447 445 428.196 445 405V323Z" fill="#0B0B0B" stroke="#4A4A4A"/>
  <rect x="415" y="599" width="232" height="33" rx="16.5" fill="#2A2A2A"/>
  <rect x="378" y="651" width="308" height="26" rx="13" fill="#1E1E1E"/>
  <rect x="380" y="220" width="18" height="286" rx="9" fill="#C1121F" fill-opacity="0.7"/>
  <path d="M779 263H1010" stroke="#C1121F" stroke-width="3" stroke-linecap="round"/>
  <text x="779" y="319" fill="#C1121F" font-family="Arial, sans-serif" font-size="26" letter-spacing="7">ANTES</text>
  <text x="779" y="405" fill="#F7F7F7" font-family="Georgia, serif" font-size="70" font-weight="700">Momento previo</text>
  <text x="779" y="468" fill="#F7F7F7" fill-opacity="0.74" font-family="Arial, sans-serif" font-size="30">Base de referencia para mostrar el cambio.</text>
  <text x="164" y="807" fill="#F7F7F7" fill-opacity="0.58" font-family="Arial, sans-serif" font-size="24">Imagen local de respaldo para evitar fallos de carga.</text>
</svg>
